<svg xmlns="http://www.w3.org/2000/svg" viewBox="0 0 32 32">
  <rect width="32" height="32" rx="4" fill="#0a0a0a"/>
  <g fill="#e0e0e0">
    <!-- { -->
    <rect x="5" y="9" width="4" height="2"/>
    <rect x="5" y="11" width="2" height="4"/>
    <rect x="3" y="15" width="2" height="2"/>
    <rect x="5" y="17" width="2" height="4"/>
    <rect x="5" y="21" width="4" height="2"/>
    <!-- G -->
    <rect x="13" y="9" width="8" height="2"/>
    <rect x="11" y="11" width="2" height="10"/>
    <rect x="15" y="15" width="4" height="2"/>
    <rect x="19" y="15" width="2" height="6"/>
    <rect x="13" y="21" width="8" height="2"/>
    <!-- } -->
    <rect x="23" y="9" width="4" height="2"/>
    <rect x="25" y="11" width="2" height="4"/>
    <rect x="27" y="15" width="2" height="2"/>
    <rect x="25" y="17" width="2" height="4"/>
    <rect x="23" y="21" width="4" height="2"/>
  </g>
</svg>
